<?xml version="1.0" encoding="utf-8"?>
<!-- Generator: Adobe Illustrator 15.0.0, SVG Export Plug-In . SVG Version: 6.00 Build 0)  -->
<!DOCTYPE svg PUBLIC "-//W3C//DTD SVG 1.1//EN" "http://www.w3.org/Graphics/SVG/1.1/DTD/svg11.dtd">
<svg version="1.1" id="Layer_1" xmlns="http://www.w3.org/2000/svg" xmlns:xlink="http://www.w3.org/1999/xlink" x="0px" y="0px"
	 width="155.906px" height="155.906px" viewBox="0 0 155.906 155.906" enable-background="new 0 0 155.906 155.906"
	 xml:space="preserve">
<g>
	<path fill="#F26522" d="M21.374,113.504c0,0-18.339-38.806-1.385-59.543C36.943,33.224,57.411,38.56,86.525,40.79
		c29.113,2.229,49.478,3.209,49.68,11.923c0.203,8.714,20.132,53.296-11.719,58.397C92.635,116.208,34.51,116.107,21.374,113.504z"
		/>
	<path fill="#F5E9D8" d="M13.324,85.369c0,0,25.487-5.671,32.123,29.776l3.089,0.057c0,0-1.095-15.833-12.963-26.307
		c-11.867-10.473-19.895-7.223-22.624-7.342L13.324,85.369z"/>
	<path fill="#FBF2D9" d="M14.667,64.646c0,0,18.103,5.21,34.222,18.821c16.119,13.611,20.556,24.771,22.712,31.621l3.449-0.08
		c0,0-7.454-23.803-23.522-35.235S20.831,64.14,14.645,63.739L14.667,64.646z"/>
	<path fill="#FEE3D1" d="M32.385,43.403c0,0,26.721,21.84,31.27,30c4.549,8.161,15.982,31.146,17.181,41.048l1.694-0.04
		c0,0-9.23-32.479-17.309-46.581C57.145,53.728,46.169,44.697,40.426,40.2C40.203,39.703,32.385,43.403,32.385,43.403z"/>
	<path fill="#FEE3D0" d="M96.607,41.554c0,0-5.515,15.311-8.064,30.666c-2.549,15.354-2.225,38.996-2.42,41.749
		c-0.087,1.212,2.734,0.492,2.734,0.492s-0.419-27.454,2.505-36.349c2.923-8.895,8.003-31.02,10.309-34.979
		C102.777,41.234,96.607,41.554,96.607,41.554z"/>
	<path fill="#FFEFDD" d="M91.727,114.197c0,0,3.728-27.271,8.246-41.18c4.521-13.909,12.131-19.9,15.993-20.473
		c3.861-0.573,9.286,3.592,12.523,17.838c3.237,14.247,4.188,38.01,4.188,38.01l-4.03,1.741c0,0-1.358-28.791-3.44-35.038
		c-2.081-6.25-3.736-14.93-8.071-13.86c-4.334,1.07-8.186,2.092-13.55,21.366c-5.365,19.275-9.399,26.97-8.793,31.524
		L91.727,114.197z"/>
	<path fill="#FFEFD9" d="M60.152,38.609c0,0,3.952,22.864,7.356,28.597c3.402,5.733,7.779,6.54,9.916,4.674
		c2.136-1.866,7.871-10.482,10.964-20.598c3.095-10.116,1.641-10.225,1.641-10.225s-6.137,17.286-8.712,21.134
		c-2.575,3.847-5.952,8.466-7.331,7.045c-1.378-1.422-5.195-1.515-7.808-12.352c-2.613-10.838-3.503-18.023-2.851-18.101
		C63.702,38.738,60.152,38.609,60.152,38.609z"/>
	<path fill="#FEE3D0" d="M68.315,39.393c0,0,0.156,14.531,3.255,15.004c3.098,0.473,7.287-1.622,9.468-4.216
		c2.18-2.594,4.789-9.446,4.789-9.446s-4.768,7.811-6.743,8.765c-1.975,0.954-3.761,3.72-5.48,3.215
		c-1.723-0.505-3.481-5.913-3.359-8.459c0.123-2.545,0.154-4.912,0.154-4.912L68.315,39.393z"/>
	<path fill="#FEE3D0" d="M121.914,44.268c0,0,13.02,16.83,13.981,19.168c0.963,2.34,5.391,11.623,5.683,13.522
		c0.292,1.898,0.445,3.052,0.445,3.052s-3.016-7.746-6.194-11.668c-3.179-3.923-6.828-12.44-8.142-14.192
		c-1.311-1.754-7.703-10.209-7.703-10.209L121.914,44.268z"/>
	<path fill="#FEE3D0" d="M103.45,113.512c0,0,4.727-23.586,10.127-25.737c5.397-2.15,6.805,3.631,8.341,7.229
		c1.537,3.598,1.497,13.908,1.494,15.586c-0.003,1.676-1.873,0.277-1.873,0.277s-0.204-9.675-1.571-13.82
		c-1.367-4.146-2.736-8.292-4.725-7.883s-4.771,5.741-5.953,9.584c-1.181,3.842-4.381,14.645-4.381,14.645L103.45,113.512z"/>
</g>
<path opacity="0.19" fill="#FFFFFF" d="M23.021,49.486c0,0,19.802-10.171,37.469-9.225c17.666,0.946,36.915,2.817,42.711,2.963
	s25.47,2.033,27.752,2.729s11.686,5.646,7.426-0.221S92.141,35.647,82.786,35.647S41.586,33.638,33.775,40
	S23.021,49.486,23.021,49.486z"/>
</svg>
