<?xml version="1.0" encoding="utf-8"?>
<!-- Generator: Adobe Illustrator 15.0.0, SVG Export Plug-In . SVG Version: 6.00 Build 0)  -->
<!DOCTYPE svg PUBLIC "-//W3C//DTD SVG 1.1//EN" "http://www.w3.org/Graphics/SVG/1.1/DTD/svg11.dtd">
<svg version="1.1" id="Layer_1" xmlns="http://www.w3.org/2000/svg" xmlns:xlink="http://www.w3.org/1999/xlink" x="0px" y="0px"
	 width="2438.445px" height="330.033px" viewBox="0 0 2438.445 330.033" enable-background="new 0 0 2438.445 330.033"
	 xml:space="preserve">
<g>
	<g>
		<path fill="#F26522" d="M70.087,284.453c0,0-62.96-133.223-4.754-204.417c58.205-71.193,128.473-52.874,228.423-45.219
			c99.949,7.654,169.86,11.017,170.555,40.932c0.697,29.916,69.113,182.971-40.231,200.482
			C314.735,293.736,115.188,293.388,70.087,284.453z"/>
		<path opacity="0.55" fill="#F5E9D8" d="M41.809,141.299c0,0,88.143,27.487,110.924,149.18l10.604,0.195
			c0,0,0.574-73.017-40.17-108.971c-40.738-35.956-70.28-52.46-79.649-52.869L41.809,141.299z"/>
		<path opacity="0.55" fill="#FEE3D1" d="M91.892,51.985c0,0,83.941,75.666,110.941,120.667c27,44.999,30,119.841,30,119.841h27
			c0,0-26.267-96.381-54-144.79c-27.727-48.413-66.619-91.273-86.336-106.714C114.24,37.684,91.892,51.985,91.892,51.985z"/>
		<path opacity="0.55" fill="#FEE3D0" d="M228.518,29.729c0,0,62.051,87.414,71.649,133.811
			c10.823,52.321,20.379,111.069,19.708,120.52c-0.298,4.16,16.709,1.305,16.709,1.305s-10.112-90.079-16.084-121.662
			c-7.126-37.685-47.507-109.567-55.333-123.21C260.594,32.521,228.518,29.729,228.518,29.729z"/>
		<path opacity="0.55" fill="#FEE3D0" d="M345.833,40.493c0,0,49.899,67.44,59.497,113.836c10.823,52.322-7.97,120.625-15.25,126.69
			c-1.58,1.316,23.96-2.872,23.96-2.872s17.38-87.863,11.407-119.445c-7.126-37.685-30.589-97.92-38.415-111.563
			C382.459,39.167,345.833,40.493,345.833,40.493z"/>
		<path opacity="0.19" fill="#FFFFFF" d="M56.271,77.669c0,0,71.198-34.592,134.717-31.374
			c63.516,3.218,132.726,9.582,153.564,10.077c20.84,0.495,91.575,6.914,99.782,9.28c8.205,2.367,35.057,20.414,23.103-0.751
			c-12.281-21.75-162.994-26.347-196.284-30.899c-33.854-4.628-148.13-10.233-176.216,11.402
			C66.851,67.041,56.271,77.669,56.271,77.669z"/>
	</g>
	<g>
		<path fill="#95989A" d="M671.271,96.339c-3.913-5.438-8.925-9.817-15.045-13.132c-6.12-3.315-13.515-4.973-22.185-4.973
			c-4.423,0-8.925,0.682-13.515,2.04c-4.59,1.363-8.758,3.443-12.495,6.248c-3.741,2.805-6.757,6.335-9.052,10.583
			c-2.295,4.251-3.442,9.268-3.442,15.045c0,5.781,1.1,10.543,3.303,14.28c2.204,3.741,5.128,6.929,8.774,9.562
			c3.646,2.638,7.801,4.805,12.463,6.502c4.662,1.701,9.535,3.403,14.623,5.1c6.271,2.04,12.583,4.251,18.942,6.63
			c6.359,2.383,12.081,5.482,17.168,9.308c5.084,3.824,9.24,8.67,12.459,14.535c3.219,5.865,4.833,13.304,4.833,22.312
			c0,9.012-1.721,16.79-5.156,23.332c-3.438,6.547-7.901,11.945-13.388,16.192c-5.49,4.252-11.762,7.396-18.814,9.436
			c-7.057,2.04-14.153,3.06-21.292,3.06c-5.443,0-10.881-0.554-16.32-1.657c-5.442-1.107-10.626-2.766-15.555-4.973
			c-4.933-2.207-9.523-5.013-13.77-8.415c-4.251-3.398-7.993-7.308-11.22-11.729l15.81-11.73
			c3.909,6.463,9.391,11.857,16.447,16.192c7.053,4.335,15.34,6.503,24.863,6.503c4.59,0,9.264-0.722,14.025-2.168
			c4.757-1.442,9.052-3.653,12.877-6.63c3.825-2.973,6.969-6.63,9.435-10.965c2.462-4.335,3.697-9.391,3.697-15.172
			c0-6.288-1.235-11.516-3.697-15.684c-2.466-4.163-5.737-7.649-9.817-10.455c-4.08-2.805-8.758-5.139-14.025-7.012
			c-5.271-1.869-10.798-3.738-16.575-5.61c-5.953-1.869-11.818-3.992-17.595-6.375c-5.781-2.378-10.965-5.482-15.555-9.308
			c-4.59-3.825-8.288-8.542-11.093-14.152c-2.805-5.61-4.208-12.495-4.208-20.655c0-8.67,1.741-16.149,5.228-22.44
			c3.482-6.287,8.033-11.475,13.643-15.555s11.813-7.052,18.615-8.925c6.797-1.869,13.515-2.805,20.145-2.805
			c12.24,0,22.695,2.167,31.365,6.502s15.212,9.479,19.635,15.427L671.271,96.339z"/>
		<path fill="#95989A" d="M726.35,247.809h-20.145l78.03-180.54h17.85l77.52,180.54h-20.4l-19.89-47.43h-93.33L726.35,247.809z
			 M752.87,183.549h79.56l-39.78-95.88L752.87,183.549z"/>
		<path fill="#95989A" d="M993.588,96.339c-3.912-5.438-8.924-9.817-15.045-13.132c-6.119-3.315-13.515-4.973-22.185-4.973
			c-4.422,0-8.925,0.682-13.515,2.04c-4.59,1.363-8.758,3.443-12.495,6.248c-3.741,2.805-6.758,6.335-9.053,10.583
			c-2.295,4.251-3.441,9.268-3.441,15.045c0,5.781,1.1,10.543,3.303,14.28c2.203,3.741,5.127,6.929,8.773,9.562
			c3.646,2.638,7.801,4.805,12.463,6.502c4.662,1.701,9.535,3.403,14.623,5.1c6.271,2.04,12.582,4.251,18.94,6.63
			c6.359,2.383,12.082,5.482,17.17,9.308c5.084,3.824,9.24,8.67,12.459,14.535s4.832,13.304,4.832,22.312
			c0,9.012-1.721,16.79-5.154,23.332c-3.439,6.547-7.902,11.945-13.389,16.192c-5.49,4.252-11.762,7.396-18.814,9.436
			c-7.056,2.04-14.151,3.06-21.292,3.06c-5.442,0-10.881-0.554-16.32-1.657c-5.441-1.107-10.626-2.766-15.555-4.973
			c-4.933-2.207-9.522-5.013-13.77-8.415c-4.252-3.398-7.992-7.308-11.221-11.729l15.811-11.73
			c3.908,6.463,9.391,11.857,16.447,16.192c7.053,4.335,15.34,6.503,24.863,6.503c4.59,0,9.264-0.722,14.024-2.168
			c4.758-1.442,9.053-3.653,12.877-6.63c3.826-2.973,6.969-6.63,9.436-10.965c2.463-4.335,3.697-9.391,3.697-15.172
			c0-6.288-1.234-11.516-3.697-15.684c-2.467-4.163-5.738-7.649-9.818-10.455c-4.08-2.805-8.757-5.139-14.024-7.012
			c-5.271-1.869-10.797-3.738-16.574-5.61c-5.953-1.869-11.818-3.992-17.596-6.375c-5.781-2.378-10.965-5.482-15.555-9.308
			c-4.59-3.825-8.287-8.542-11.093-14.152c-2.805-5.61-4.208-12.495-4.208-20.655c0-8.67,1.742-16.149,5.229-22.44
			c3.482-6.287,8.032-11.475,13.643-15.555c5.609-4.08,11.812-7.052,18.615-8.925c6.797-1.869,13.514-2.805,20.145-2.805
			c12.24,0,22.694,2.167,31.364,6.502s15.213,9.479,19.635,15.427L993.588,96.339z"/>
		<path fill="#95989A" d="M1049.942,67.269h18.36v78.285h98.43V67.269h18.36v180.54h-18.36v-85.425h-98.43v85.425h-18.36V67.269z"/>
		<path fill="#95989A" d="M1251.39,247.809h-18.36V67.269h18.36V247.809z"/>
		<path fill="#95989A" d="M1388.578,216.699h0.255l60.436-149.43h28.05v180.54h-18.36V90.984h-0.51l-65.28,156.825h-9.689
			l-65.28-156.825h-0.51v156.825h-18.36V67.269h28.05L1388.578,216.699z"/>
		<path fill="#95989A" d="M1543.615,247.809h-18.36V67.269h18.36V247.809z"/>
		<path fill="#95989A" d="M1783.314,221.034h0.51V67.269h18.359v180.54h-22.949L1674.174,92.514h-0.51v155.295h-18.36V67.269h22.95
			L1783.314,221.034z"/>
		<path fill="#95989A" d="M2028.622,157.539c0,13.77-2.383,26.436-7.14,37.995c-4.762,11.562-11.348,21.548-19.763,29.963
			s-18.36,15.005-29.835,19.763c-11.475,4.757-23.93,7.14-37.357,7.14c-13.432,0-25.883-2.383-37.357-7.14
			c-11.475-4.758-21.42-11.348-29.835-19.763s-15.005-18.4-19.763-29.963c-4.762-11.559-7.14-24.225-7.14-37.995
			s2.378-26.432,7.14-37.995c4.758-11.559,11.348-21.547,19.763-29.962s18.36-15.001,29.835-19.763
			c11.475-4.757,23.926-7.14,37.357-7.14c13.428,0,25.883,2.382,37.357,7.14c11.475,4.762,21.42,11.348,29.835,19.763
			s15.001,18.404,19.763,29.962C2026.239,131.107,2028.622,143.769,2028.622,157.539z M2009.242,157.667
			c0-10.522-1.701-20.535-5.1-30.042c-3.403-9.503-8.332-17.862-14.79-25.074c-6.463-7.212-14.324-12.941-23.588-17.185
			c-9.268-4.244-19.679-6.367-31.237-6.367c-11.562,0-21.974,2.124-31.237,6.367c-9.268,4.243-17.129,9.973-23.588,17.185
			c-6.463,7.211-11.392,15.571-14.79,25.074c-3.402,9.507-5.1,19.52-5.1,30.042c0,10.527,1.697,20.539,5.1,30.043
			c3.398,9.506,8.327,17.821,14.79,24.949c6.459,7.128,14.32,12.814,23.588,17.058c9.264,4.243,19.675,6.362,31.237,6.362
			c11.559,0,21.97-2.119,31.237-6.362c9.264-4.243,17.125-9.93,23.588-17.058c6.458-7.128,11.387-15.443,14.79-24.949
			C2007.541,178.206,2009.242,168.194,2009.242,157.667z"/>
		<path fill="#95989A" d="M2117.106,247.809h-18.36V83.589h-60.436v-16.32h139.23v16.32h-60.435V247.809z"/>
		<path fill="#95989A" d="M2222.929,231.489h96.645v16.32h-115.005V67.269h111.945v16.32h-93.585v61.965h87.465v16.32h-87.465
			V231.489z"/>
	</g>
</g>
</svg>
