<?xml version="1.0" encoding="utf-8"?>
<!-- Generator: Adobe Illustrator 15.0.0, SVG Export Plug-In . SVG Version: 6.00 Build 0)  -->
<!DOCTYPE svg PUBLIC "-//W3C//DTD SVG 1.1//EN" "http://www.w3.org/Graphics/SVG/1.1/DTD/svg11.dtd">
<svg version="1.1" id="Layer_1" xmlns="http://www.w3.org/2000/svg" xmlns:xlink="http://www.w3.org/1999/xlink" x="0px" y="0px"
	 width="512px" height="512px" viewBox="0 0 512 512" enable-background="new 0 0 512 512" xml:space="preserve">
<g>
	<g>
		<path fill="#F26522" d="M682.194,382.145c0,0-62.96-133.222-4.754-204.416c58.205-71.193,128.473-52.874,228.423-45.219
			c99.949,7.654,169.86,11.017,170.555,40.932c0.697,29.916,69.113,182.97-40.231,200.482
			C926.842,391.428,727.294,391.08,682.194,382.145z"/>
		<path fill="#F5E9D8" d="M654.559,285.553c0,0,87.5-19.469,110.281,102.225l10.604,0.195c0,0-3.758-54.357-44.502-90.312
			c-40.738-35.955-68.3-24.797-77.669-25.205L654.559,285.553z"/>
		<path fill="#FCF5E7" d="M659.168,214.411c0,0,62.151,17.885,117.485,64.614c55.338,46.729,70.57,85.043,77.972,108.559
			l11.842-0.275c0,0-25.591-81.717-80.754-120.967c-55.164-39.249-105.383-53.667-126.618-55.045L659.168,214.411z"/>
		<path fill="#FEE3D1" d="M719.999,141.481c0,0,91.734,74.978,107.351,102.992c15.617,28.019,54.869,106.929,58.983,140.921
			l5.816-0.139c0,0-31.688-111.504-59.421-159.915c-27.727-48.413-65.406-79.416-85.123-94.856
			C742.347,127.181,719.999,141.481,719.999,141.481z"/>
		<path fill="#FEE3D0" d="M940.477,135.133c0,0-18.933,52.564-27.687,105.278c-8.75,52.708-7.637,133.876-8.308,143.327
			c-0.298,4.16,9.388,1.689,9.388,1.689s-1.438-94.254,8.599-124.789c10.035-30.532,27.476-106.493,35.391-120.084
			C961.658,134.035,940.477,135.133,940.477,135.133z"/>
		<path fill="#FCEEDC" d="M923.723,384.523c0,0,12.798-93.623,28.31-141.375c15.521-47.75,41.646-68.317,54.906-70.285
			c13.256-1.968,31.88,12.333,42.993,61.241c11.115,48.909,14.38,130.491,14.38,130.491l-13.836,5.977
			c0,0-4.664-98.842-11.812-120.289c-7.144-21.456-12.826-51.254-27.709-47.58c-14.879,3.668-28.102,7.178-46.518,73.349
			c-18.419,66.172-32.27,92.588-30.188,108.225L923.723,384.523z"/>
		<path fill="#FFECD5" d="M815.323,125.023c0,0,13.568,78.492,25.255,98.177c11.68,19.681,26.707,22.45,34.042,16.042
			c7.332-6.406,27.022-35.983,37.64-70.714c10.625-34.728,5.632-35.104,5.632-35.104s-21.068,59.341-29.908,72.55
			c-8.842,13.21-20.434,29.066-25.168,24.186c-4.73-4.875-17.836-5.197-26.804-42.401c-8.972-37.207-9.515-60.737-9.568-62.994
			C826.391,122.511,815.323,125.023,815.323,125.023z"/>
		<path fill="#FEE3D0" d="M843.348,127.714c0,0,0.537,49.885,11.174,51.509c10.635,1.623,25.017-5.568,32.503-14.474
			c7.483-8.904,16.44-32.428,16.44-32.428s-16.367,26.814-23.149,30.09c-6.779,3.275-12.91,12.772-18.813,11.038
			c-5.915-1.734-11.953-20.298-11.534-29.042c0.422-8.737,0.529-16.862,0.529-16.862L843.348,127.714z"/>
		<path fill="#FEE3D0" d="M1027.356,144.452c0,0,44.697,57.776,47.999,65.809c3.306,8.026,18.507,39.898,19.509,46.421
			c1.002,6.516,1.529,10.477,1.529,10.477s-10.354-26.593-21.267-40.061c-10.912-13.464-23.44-42.706-27.951-48.718
			c-4.498-6.023-26.444-35.05-26.444-35.05L1027.356,144.452z"/>
		<path fill="#FEE3D0" d="M963.968,382.172c0,0,16.227-80.973,34.768-88.359c18.529-7.381,23.36,12.467,28.634,24.818
			c5.277,12.35,5.141,47.746,5.129,53.506c-0.01,5.754-6.43,0.953-6.43,0.953s-0.701-33.215-5.394-47.447
			c-4.694-14.234-9.395-28.465-16.221-27.062c-6.825,1.406-16.377,19.713-20.438,32.902c-4.053,13.189-15.039,50.277-15.039,50.277
			L963.968,382.172z"/>
	</g>
	<path opacity="0.19" fill="#FFFFFF" d="M668.377,174.967c0,0,71.198-34.592,134.717-31.374
		c63.516,3.218,132.726,9.582,153.564,10.077c20.84,0.495,91.575,6.914,99.782,9.28c8.205,2.367,35.057,20.414,23.103-0.751
		c-12.281-21.75-162.994-26.347-196.284-30.899c-33.854-4.628-148.13-10.233-176.216,11.402
		C678.957,164.339,668.377,174.967,668.377,174.967z"/>
</g>
<path fill="#F26522" d="M62.724,382.145c0,0-62.96-133.222-4.754-204.416c58.205-71.193,128.473-52.874,228.423-45.219
	c99.949,7.654,169.86,11.017,170.555,40.932c0.697,29.916,69.113,182.97-40.231,200.482
	C307.372,391.428,107.824,391.08,62.724,382.145z"/>
<path opacity="0.55" fill="#F5E9D8" d="M34.446,238.598c0,0,88.143,27.486,110.924,149.18l10.604,0.195
	c0,0,0.574-73.017-40.17-108.972c-40.738-35.955-70.28-52.459-79.649-52.868L34.446,238.598z"/>
<path opacity="0.55" fill="#FEE3D1" d="M84.529,149.283c0,0,83.941,75.666,110.941,120.666s30,119.842,30,119.842h27
	c0,0-26.267-96.381-54-144.79c-27.727-48.413-66.619-91.273-86.336-106.714C106.877,134.982,84.529,149.283,84.529,149.283z"/>
<path opacity="0.55" fill="#FEE3D0" d="M221.154,127.028c0,0,62.051,87.414,71.649,133.81
	c10.823,52.321,20.379,111.069,19.708,120.521c-0.298,4.16,16.709,1.305,16.709,1.305s-10.112-90.079-16.084-121.662
	c-7.126-37.684-47.507-109.567-55.333-123.21C253.231,129.819,221.154,127.028,221.154,127.028z"/>
<path opacity="0.55" fill="#FEE3D0" d="M338.47,137.791c0,0,49.899,67.44,59.497,113.836c10.823,52.322-7.97,120.625-15.25,126.69
	c-1.58,1.316,23.96-2.872,23.96-2.872s17.38-87.863,11.407-119.445c-7.126-37.685-30.589-97.92-38.415-111.563
	C375.096,136.465,338.47,137.791,338.47,137.791z"/>
<path opacity="0.19" fill="#FFFFFF" d="M48.908,174.967c0,0,71.198-34.592,134.717-31.374
	c63.516,3.218,132.726,9.582,153.564,10.077c20.84,0.495,91.575,6.914,99.782,9.28c8.205,2.367,35.057,20.414,23.103-0.751
	c-12.281-21.75-162.994-26.347-196.284-30.899c-33.854-4.628-148.13-10.233-176.216,11.402
	C59.487,164.339,48.908,174.967,48.908,174.967z"/>
</svg>
