<?xml version="1.0" encoding="utf-8"?>
<!-- Generator: Adobe Illustrator 15.0.0, SVG Export Plug-In . SVG Version: 6.00 Build 0)  -->
<!DOCTYPE svg PUBLIC "-//W3C//DTD SVG 1.1//EN" "http://www.w3.org/Graphics/SVG/1.1/DTD/svg11.dtd">
<svg version="1.1" id="delete_1_" xmlns="http://www.w3.org/2000/svg" xmlns:xlink="http://www.w3.org/1999/xlink" x="0px" y="0px"
	 width="249px" height="249px" viewBox="2335.783 0 249 249" enable-background="new 2335.783 0 249 249" xml:space="preserve">
<g id="delete">
	<path fill="#9E9E9E" d="M2515.852,199.09c0,2.544-2.936,4.605-6.562,4.605h-98.012c-3.627,0-6.562-2.062-6.562-4.605V91.911
		c0-2.544,2.938-4.606,6.562-4.606h98.012c3.627,0,6.562,2.062,6.562,4.606V199.09z"/>
	<path fill="#9E9E9E" d="M2527.5,71.271c0,3.163-2.688,5.729-6.003,5.729H2399.07c-3.315,0-6.004-2.566-6.004-5.729v-6.875
		c0-3.163,2.688-5.729,6.004-5.729h122.427c3.313,0,6.003,2.566,6.003,5.729V71.271z"/>
	<path fill="#9E9E9E" d="M2482.064,57.667c0,2.761-0.871,5-1.945,5h-39.672c-1.074,0-1.945-2.239-1.945-5v-6
		c0-2.761,0.871-5,1.945-5h39.672c1.074,0,1.945,2.239,1.945,5V57.667z"/>
	<polygon id="Shape_13_" fill="none" points="2335.783,0 2584.783,0 2584.783,249 2335.783,249 	"/>
</g>
</svg>
