<?xml version="1.0" encoding="utf-8"?>
<!-- Generator: Adobe Illustrator 15.0.0, SVG Export Plug-In . SVG Version: 6.00 Build 0)  -->
<!DOCTYPE svg PUBLIC "-//W3C//DTD SVG 1.1//EN" "http://www.w3.org/Graphics/SVG/1.1/DTD/svg11.dtd">
<svg version="1.1" id="upload_1_" xmlns="http://www.w3.org/2000/svg" xmlns:xlink="http://www.w3.org/1999/xlink" x="0px" y="0px"
	 width="249px" height="249px" viewBox="1684.967 0 249 249" enable-background="new 1684.967 0 249 249" xml:space="preserve">
<g id="upload">
	<path fill="#9E9E9E" d="M1762.282,101.513l98.876-0.56l1.335-1.336c2.215-2.214,2.233-5.784,0.047-7.974l-46.517-46.513
		c-2.188-2.19-5.759-2.17-7.974,0.045l-47.045,47.043c-2.215,2.215-2.235,5.784-0.045,7.974L1762.282,101.513z"/>
	<path fill="#9E9E9E" d="M1832.803,157.918c0,2.762-2.522,5-5.64,5h-30.825c-3.114,0-5.64-2.238-5.64-5v-72c0-2.762,2.522-5,5.64-5
		h30.825c3.114,0,5.64,2.238,5.64,5V157.918z"/>
	<path fill="#9E9E9E" d="M1883.467,199.667c0,3.222-2.238,5.833-5,5.833h-138c-2.763,0-5-2.611-5-5.833v-12.834
		c0-3.222,2.237-5.833,5-5.833h138c2.762,0,5,2.611,5,5.833V199.667z"/>
	<polygon id="Shape_9_" fill="none" points="1684.967,0 1933.967,0 1933.967,249 1684.967,249 	"/>
</g>
</svg>
