<?xml version="1.0" encoding="utf-8"?>
<!-- Generator: Adobe Illustrator 15.0.0, SVG Export Plug-In . SVG Version: 6.00 Build 0)  -->
<!DOCTYPE svg PUBLIC "-//W3C//DTD SVG 1.1//EN" "http://www.w3.org/Graphics/SVG/1.1/DTD/svg11.dtd">
<svg version="1.1" id="duplicate_1_" xmlns="http://www.w3.org/2000/svg" xmlns:xlink="http://www.w3.org/1999/xlink" x="0px"
	 y="0px" width="249px" height="249px" viewBox="1362.967 0 249 249" enable-background="new 1362.967 0 249 249"
	 xml:space="preserve">
<g id="duplicate">
	<polygon id="Shape_7_" fill="none" points="1362.967,0 1611.967,0 1611.967,249 1362.967,249 	"/>
	<path fill="#9E9E9E" d="M1424.344,26.137c-9.979,0-18.055,8.164-18.055,18.145l-0.09,145.151c0,9.979,8.074,18.144,18.053,18.144
		h108.955c9.979,0,18.143-8.164,18.143-18.144V68.688l-41.959-42.551H1424.344z"/>
	<path fill="#9E9E9E" stroke="#FFFFFF" stroke-width="9" d="M1441.727,41.424c-9.979,0-18.055,8.165-18.055,18.144l-0.088,145.153
		c0,9.979,8.072,18.145,18.053,18.145h108.953c9.979,0,18.146-8.164,18.146-18.145V83.975l-41.963-42.551H1441.727z"/>
	<polygon fill="#9E9E9E" stroke="#FFFFFF" stroke-width="7" points="1529.441,81.646 1529.441,43.665 1567.424,81.646 	"/>
</g>
</svg>
