<?xml version="1.0" encoding="utf-8"?>
<!-- Generator: Adobe Illustrator 15.0.0, SVG Export Plug-In . SVG Version: 6.00 Build 0)  -->
<!DOCTYPE svg PUBLIC "-//W3C//DTD SVG 1.1//EN" "http://www.w3.org/Graphics/SVG/1.1/DTD/svg11.dtd">
<svg version="1.1" id="editor" xmlns="http://www.w3.org/2000/svg" xmlns:xlink="http://www.w3.org/1999/xlink" x="0px" y="0px"
	 width="248.999px" height="249px" viewBox="-10.534 346.906 248.999 249" enable-background="new -10.534 346.906 248.999 249"
	 xml:space="preserve">
<rect id="Rectangle_2_" x="-10.534" y="346.906" fill="#D8D8D8" fill-opacity="0" width="249.001" height="249"/>
<g>
	<g>
		<path fill="#9E9E9E" d="M81.486,541.313c-2.793,2.824-7.674,2.522-10.902-0.672l-28.075-27.76
			c-3.23-3.194-3.587-8.071-0.795-10.895l94.979-96.056c2.791-2.823,7.672-2.521,10.902,0.674l28.072,27.759
			c3.23,3.194,3.588,8.071,0.797,10.894L81.486,541.313z"/>
		<g>
			<defs>
				<polygon id="SVGID_1_" points="58.698,578.247 10.712,531.362 38.644,502.778 86.631,549.663 				"/>
			</defs>
			<clipPath id="SVGID_2_">
				<use xlink:href="#SVGID_1_"  overflow="visible"/>
			</clipPath>
			<path clip-path="url(#SVGID_2_)" fill="#9E9E9E" d="M80.422,538.612c0.016,2.69-2.158,4.882-4.846,4.9l-31.196,0.176
				c-2.69,0.015-4.885-2.154-4.9-4.847l-0.175-31.193c-0.015-2.692,2.153-4.887,4.847-4.9l31.192-0.177
				c2.693-0.016,4.887,2.153,4.902,4.846L80.422,538.612z"/>
		</g>
	</g>
	<path fill="#9E9E9E" d="M190.537,430.636c-1.957,1.956-5.516,1.569-7.951-0.866l-30.568-30.566
		c-2.434-2.436-2.82-5.996-0.865-7.951l10.557-10.555c1.955-1.956,5.514-1.568,7.949,0.867l30.568,30.566
		c2.434,2.435,2.82,5.994,0.865,7.949L190.537,430.636z"/>
</g>
</svg>
