<?xml version="1.0" encoding="utf-8"?>
<!-- Generator: Adobe Illustrator 15.0.0, SVG Export Plug-In . SVG Version: 6.00 Build 0)  -->
<!DOCTYPE svg PUBLIC "-//W3C//DTD SVG 1.1//EN" "http://www.w3.org/Graphics/SVG/1.1/DTD/svg11.dtd">
<svg version="1.1" id="download_1_" xmlns="http://www.w3.org/2000/svg" xmlns:xlink="http://www.w3.org/1999/xlink" x="0px"
	 y="0px" width="249px" height="249px" viewBox="1984.783 0 249 249" enable-background="new 1984.783 0 249 249"
	 xml:space="preserve">
<g id="download">
	<path fill="#9E9E9E" d="M2158.751,103.406l-98.876,0.56l-1.335,1.336c-2.215,2.214-2.235,5.784-0.046,7.974l46.515,46.513
		c2.19,2.189,5.759,2.17,7.976-0.045l47.045-47.043c2.215-2.215,2.232-5.784,0.045-7.974L2158.751,103.406z"/>
	<path fill="#9E9E9E" d="M2088.23,47c0-2.762,2.521-5,5.639-5h30.826c3.111,0,5.639,2.238,5.639,5v72c0,2.762-2.524,5-5.639,5
		h-30.826c-3.114,0-5.639-2.238-5.639-5V47z"/>
	<path fill="#9E9E9E" d="M2181,198.167c0,3.222-2.238,5.833-5,5.833h-138c-2.762,0-5-2.611-5-5.833v-12.834
		c0-3.222,2.238-5.833,5-5.833h138c2.762,0,5,2.611,5,5.833V198.167z"/>
	<polygon id="Shape_12_" fill="none" points="1984.783,0 2233.783,0 2233.783,249 1984.783,249 	"/>
</g>
</svg>
