<?xml version="1.0" encoding="UTF-8"?>
<svg width="66px" height="66px" viewBox="0 0 66 66" version="1.1" xmlns="http://www.w3.org/2000/svg" xmlns:xlink="http://www.w3.org/1999/xlink">
    <!-- Generator: Sketch 41 (35326) - http://www.bohemiancoding.com/sketch -->
    <title>button-view</title>
    <desc>Created with Sketch.</desc>
    <defs></defs>
    <g id="Symbols" stroke="none" stroke-width="1" fill="none" fill-rule="evenodd">
        <g id="button-view" transform="translate(1.000000, 1.000000)">
            <g>
                <!--<path d="M32,64 C42.08766,64 51.0851108,59.3322598 56.9503286,52.0388032 C61.3607001,46.5544625 64,39.585452 64,32 C64,14.326888 49.673112,0 32,0 C14.326888,0 0,14.326888 0,32 C0,49.673112 14.326888,64 32,64 Z" id="Oval-Copy-2" stroke="#000000" stroke-width="2"></path>-->
                <g id="ic_remove_red_eye_black_24px" transform="translate(6.000000, 6.000000)">
                    <g id="Group">
                        <polygon id="Shape" points="0 0 53 0 53 53 0 53"></polygon>
                        <path d="M26.5,9.9375 C15.4583333,9.9375 6.02875,16.8054167 2.20833333,26.5 C6.02875,36.1945833 15.4583333,43.0625 26.5,43.0625 C37.5416667,43.0625 46.97125,36.1945833 50.7916667,26.5 C46.97125,16.8054167 37.5416667,9.9375 26.5,9.9375 Z M26.5,37.5416667 C20.405,37.5416667 15.4583333,32.595 15.4583333,26.5 C15.4583333,20.405 20.405,15.4583333 26.5,15.4583333 C32.595,15.4583333 37.5416667,20.405 37.5416667,26.5 C37.5416667,32.595 32.595,37.5416667 26.5,37.5416667 Z M26.5,19.875 C22.8341667,19.875 19.875,22.8341667 19.875,26.5 C19.875,30.1658333 22.8341667,33.125 26.5,33.125 C30.1658333,33.125 33.125,30.1658333 33.125,26.5 C33.125,22.8341667 30.1658333,19.875 26.5,19.875 Z" id="Shape" stroke="#000000" stroke-width="2"></path>
                    </g>
                </g>
            </g>
        </g>
    </g>
</svg>