<?xml version="1.0" encoding="UTF-8"?>
<svg width="66px" height="66px" viewBox="0 0 66 66" version="1.1" xmlns="http://www.w3.org/2000/svg" xmlns:xlink="http://www.w3.org/1999/xlink">
    <!-- Generator: Sketch 41 (35326) - http://www.bohemiancoding.com/sketch -->
    <title>button-annotations</title>
    <desc>Created with Sketch.</desc>
    <defs></defs>
    <g id="Symbols" stroke="none" stroke-width="1" fill="none" fill-rule="evenodd">
        <g id="button-annotations" transform="translate(1.000000, 1.000000)">
            <g>
                <!--<circle id="Oval-5" stroke="#000000" stroke-width="2" cx="32" cy="32" r="32"></circle>-->
                <g id="Group-2" transform="translate(12.000000, 8.000000)">
                    <path d="M8.53846154,22.5008223 L8.53846154,28.4210526 L14.4671253,28.4210526 L31.9527309,10.9603198 L26.0240672,5.04008946 L8.53846154,22.5008223 Z M36.5375642,6.38200835 C37.1541453,5.76630439 37.1541453,4.77170568 36.5375642,4.15600172 L32.838078,0.461777969 C32.221497,-0.15392599 31.2254815,-0.15392599 30.6089005,0.461777969 L27.7157126,3.35085039 L33.6443763,9.27108077 L36.5375642,6.38200835 Z" id="Shape" stroke="#000000" stroke-width="2"></path>
                    <g id="ic_gesture_black_24px" transform="translate(0.000000, 24.631579)">
                        <g id="Group">
                            <path d="M5.62471154,8.43118421 C6.48251068,7.56236842 7.34030983,6.77921053 7.72019231,6.93828947 C8.33290598,7.18302632 7.72019231,8.19868421 7.3525641,8.79828947 C7.04620726,9.31223684 3.84784188,13.5584211 3.84784188,16.5197368 C3.84784188,18.0860526 4.43604701,19.3831579 5.48991453,20.1663158 C6.40898504,20.8515789 7.62215812,21.0596053 8.72504274,20.7292105 C10.03625,20.3498684 11.1146261,19.0160526 12.4748504,17.3396053 C13.9576175,15.5163158 15.9428098,13.1301316 17.474594,13.1301316 C19.4720406,13.1301316 19.4965491,14.3660526 19.6313462,15.3205263 C14.9992308,16.1036842 13.038547,19.8114474 13.038547,21.8917105 C13.038547,23.9719737 14.8031624,25.6728947 16.9721688,25.6728947 C18.9696154,25.6728947 22.2292521,24.0453947 22.7194231,18.2084211 L25.7339744,18.2084211 L25.7339744,15.1492105 L22.7071688,15.1492105 C22.5233547,13.1301316 21.371453,10.0097368 17.7686966,10.0097368 C15.011485,10.0097368 12.6464103,12.3469737 11.7150855,13.485 C11.0043376,14.3782895 9.19070513,16.5197368 8.90885684,16.8134211 C8.6025,17.1805263 8.07556624,17.8413158 7.54863248,17.8413158 C6.99719017,17.8413158 6.66632479,16.8256579 7.10747863,15.4918421 C7.53637821,14.1580263 8.82307692,11.9921053 9.37451923,11.1844737 C10.3303526,9.78947368 10.9675748,8.835 10.9675748,7.17078947 C10.9675748,4.51539474 8.95787393,3.67105263 7.89175214,3.67105263 C6.27418803,3.67105263 4.86494658,4.89473684 4.55858974,5.20065789 C4.1174359,5.64118421 3.74980769,6.00828947 3.48021368,6.33868421 L5.62471154,8.43118421 Z M17.0089316,22.6993421 C16.6290491,22.6993421 16.1021154,22.3811842 16.1021154,21.8182895 C16.1021154,21.0840789 16.9966774,19.1261842 19.6190919,18.4409211 C19.2514637,21.7326316 17.8667308,22.6993421 17.0089316,22.6993421 Z" id="Shape" stroke="#000000" stroke-width="2"></path>
                            <polygon id="Shape" points="0 0 29.4102564 0 29.4102564 29.3684211 0 29.3684211"></polygon>
                        </g>
                    </g>
                </g>
            </g>
        </g>
    </g>
</svg>