<svg id="button-add-new-file" xmlns="http://www.w3.org/2000/svg" viewBox="905 138 41 41">
  <defs>
    <style>
      .cls-1 {
        fill: none;
      }

      .cls-2 {
        fill: #939393;
      }

      .cls-3 {
        fill: #f7f7f7;
      }
    </style>
  </defs>
  <path id="Path_5" data-name="Path 5" class="cls-1" d="M0,0H41V41H0Z" transform="translate(905 138)"/>
  <path id="Path_6" data-name="Path 6" d="M26.708,2.5H7.917A3.427,3.427,0,0,0,4.5,5.917V29.833A3.427,3.427,0,0,0,7.917,33.25H26.708a3.427,3.427,0,0,0,3.417-3.417V5.917A3.427,3.427,0,0,0,26.708,2.5Zm0,27.333H7.917V5.917H26.708Z" transform="translate(908.188 139.771)"/>
  <path id="Path_7" data-name="Path 7" class="cls-2" d="M26.708,2.5H7.917A3.427,3.427,0,0,0,4.5,5.917V29.833A3.427,3.427,0,0,0,7.917,33.25H26.708a3.427,3.427,0,0,0,3.417-3.417V5.917A3.427,3.427,0,0,0,26.708,2.5Zm0,27.333H7.917V5.917H26.708Z" transform="translate(908.188 139.771)"/>
  <path id="Path_10" data-name="Path 10" class="cls-3" d="M8.757,0A8.757,8.757,0,1,1,0,8.757,8.757,8.757,0,0,1,8.757,0Z" transform="translate(908 138.324)"/>
  <g id="Group_1" data-name="Group 1" transform="translate(908.174 138.5)">
    <path id="Path_8" data-name="Path 8" class="cls-1" d="M11.224,12H28.389V29.165H11.224Z" transform="translate(-11.224 -12)"/>
    <path id="Path_9" data-name="Path 9" class="cls-2" d="M19.929,16.414H18.5v2.86H15.636v1.433H18.5v2.86h1.432v-2.86H22.79V19.274H19.929Zm-.714-3.577a7.154,7.154,0,1,0,7.151,7.153A7.156,7.156,0,0,0,19.215,12.837Zm0,12.874a5.722,5.722,0,1,1,5.721-5.723A5.73,5.73,0,0,1,19.215,25.711Z" transform="translate(-10.632 -11.407)"/>
  </g>
</svg>
