<?xml version="1.0" encoding="UTF-8"?>
<svg width="66px" height="66px" viewBox="0 0 66 66" version="1.1" xmlns="http://www.w3.org/2000/svg" xmlns:xlink="http://www.w3.org/1999/xlink">
    <!-- Generator: Sketch 41 (35326) - http://www.bohemiancoding.com/sketch -->
    <title>button-share</title>
    <desc>Created with Sketch.</desc>
    <defs></defs>
    <g id="Symbols" stroke="none" stroke-width="1" fill="none" fill-rule="evenodd">
        <g id="button-share" transform="translate(1.000000, 1.000000)">
            <g>
                <g id="Group" transform="translate(10.000000, 10.000000)">
                    <polygon id="Shape" points="0 0 44 0 44 44 0 44"></polygon>
                    <path d="M33.5,29.8133333 C32.1066667,29.8133333 30.86,30.3633333 29.9066667,31.225 L16.835,23.6166667 C16.9266667,23.195 17,22.7733333 17,22.3333333 C17,21.8933333 16.9266667,21.4716667 16.835,21.05 L29.76,13.515 C30.75,14.4316667 32.0516667,15 33.5,15 C36.5433333,15 39,12.5433333 39,9.5 C39,6.45666667 36.5433333,4 33.5,4 C30.4566667,4 28,6.45666667 28,9.5 C28,9.94 28.0733333,10.3616667 28.165,10.7833333 L15.24,18.3183333 C14.25,17.4016667 12.9483333,16.8333333 11.5,16.8333333 C8.45666667,16.8333333 6,19.29 6,22.3333333 C6,25.3766667 8.45666667,27.8333333 11.5,27.8333333 C12.9483333,27.8333333 14.25,27.265 15.24,26.3483333 L28.2933333,33.975 C28.2016667,34.36 28.1466667,34.7633333 28.1466667,35.1666667 C28.1466667,38.1183333 30.5483333,40.52 33.5,40.52 C36.4516667,40.52 38.8533333,38.1183333 38.8533333,35.1666667 C38.8533333,32.215 36.4516667,29.8133333 33.5,29.8133333 Z" id="Shape" stroke="#000000" stroke-width="2"></path>
                </g>
                <!--<circle id="Oval-Copy-2" stroke="#000000" stroke-width="2" cx="32" cy="32" r="32"></circle>-->
            </g>
        </g>
    </g>
</svg>