<?xml version="1.0" encoding="UTF-8"?>
<svg width="66px" height="66px" viewBox="0 0 66 66" version="1.1" xmlns="http://www.w3.org/2000/svg" xmlns:xlink="http://www.w3.org/1999/xlink">
    <!-- Generator: Sketch 41 (35326) - http://www.bohemiancoding.com/sketch -->
    <title>button-plugins</title>
    <desc>Created with Sketch.</desc>
    <defs></defs>
    <g id="Symbols" stroke="none" stroke-width="1" fill="none" fill-rule="evenodd">
        <g id="button-plugins" transform="translate(1.000000, 1.000000)">
            <g>
                <g id="Group" transform="translate(11.000000, 11.000000)">
                    <polygon id="Shape" points="0 0 43 0 43 43 0 43"></polygon>
                    <path d="M36.7291667,19.7083333 L34.0416667,19.7083333 L34.0416667,12.5416667 C34.0416667,10.5708333 32.4291667,8.95833333 30.4583333,8.95833333 L23.2916667,8.95833333 L23.2916667,6.27083333 C23.2916667,3.79833333 21.285,1.79166667 18.8125,1.79166667 C16.34,1.79166667 14.3333333,3.79833333 14.3333333,6.27083333 L14.3333333,8.95833333 L7.16666667,8.95833333 C5.19583333,8.95833333 3.60125,10.5708333 3.60125,12.5416667 L3.60125,19.35 L6.27083333,19.35 C8.94041667,19.35 11.1083333,21.5179167 11.1083333,24.1875 C11.1083333,26.8570833 8.94041667,29.025 6.27083333,29.025 L3.58333333,29.025 L3.58333333,35.8333333 C3.58333333,37.8041667 5.19583333,39.4166667 7.16666667,39.4166667 L13.975,39.4166667 L13.975,36.7291667 C13.975,34.0595833 16.1429167,31.8916667 18.8125,31.8916667 C21.4820833,31.8916667 23.65,34.0595833 23.65,36.7291667 L23.65,39.4166667 L30.4583333,39.4166667 C32.4291667,39.4166667 34.0416667,37.8041667 34.0416667,35.8333333 L34.0416667,28.6666667 L36.7291667,28.6666667 C39.2016667,28.6666667 41.2083333,26.66 41.2083333,24.1875 C41.2083333,21.715 39.2016667,19.7083333 36.7291667,19.7083333 Z" id="Shape" stroke="#000000" stroke-width="2"></path>
                </g>
                <!--<circle id="Oval-Copy" stroke="#000000" stroke-width="2" cx="32" cy="32" r="32"></circle>-->
            </g>
        </g>
    </g>
</svg>